{
  "accessors": [
    {
      "bufferView": 2,
      "componentType": 5126,
      "count": 1220,
      "max": [
        423.13043212890625,
        221.56234741210938,
        959.063232421875
      ],
      "min": [
        -131.68894958496094,
        -181.54060363769531,
        -28.875547409057617
      ],
      "type": "VEC3"
    },
    {
      "bufferView": 2,
      "byteOffset": 14640,
      "componentType": 5126,
      "count": 1220,
      "max": [
        0.9997791051864624,
        0.99864238500595093,
        0.9992673397064209
      ],
      "min": [
        -0.99443286657333374,
        -0.99915587902069092,
        -0.99569344520568848
      ],
      "type": "VEC3"
    },
    {
      "bufferView": 3,
      "componentType": 5126,
      "count": 1220,
      "max": [
        0.98793637752532959,
        0.99995023012161255,
        0.99908238649368286,
        1
      ],
      "min": [
        -0.99977588653564453,
        -0.99962109327316284,
        -0.99721354246139526,
        -1
      ],
      "type": "VEC4"
    },
    {
      "bufferView": 1,
      "componentType": 5126,
      "count": 1220,
      "max": [
        0.99921697378158569,
        0.99431759119033813
      ],
      "min": [
        -0.0026372624561190605,
        0.0022718813270330429
      ],
      "type": "VEC2"
    },
    {
      "bufferView": 1,
      "byteOffset": 9760,
      "componentType": 5126,
      "count": 1220,
      "max": [
        0.99921697378158569,
        0.99431759119033813
      ],
      "min": [
        -0.0026372624561190605,
        0.0022718813270330429
      ],
      "type": "VEC2"
    },
    {
      "bufferView": 1,
      "byteOffset": 19520,
      "componentType": 5126,
      "count": 1220,
      "max": [
        0.99921697378158569,
        0.99431759119033813
      ],
      "min": [
        -0.0026372624561190605,
        0.0022718813270330429
      ],
      "type": "VEC2"
    },
    {
      "bufferView": 0,
      "componentType": 5125,
      "count": 4731,
      "max": [
        1219
      ],
      "min": [
        0
      ],
      "type": "SCALAR"
    }
  ],
  "asset": {
    "extras": {
      "author": "Enrico Labarile (https://sketchfab.com/enrico.labarile)",
      "license": "CC-BY-4.0 (http://creativecommons.org/licenses/by/4.0/)",
      "source": "https://sketchfab.com/3d-models/tree-4aac1078253e48248012bdcac6cba83b",
      "title": "Tree"
    },
    "generator": "Sketchfab-7.7.0",
    "version": "2.0"
  },
  "bufferViews": [
    {
      "buffer": 0,
      "byteLength": 18924,
      "byteOffset": 0,
      "name": "floatBufferViews",
      "target": 34963
    },
    {
      "buffer": 0,
      "byteLength": 29280,
      "byteOffset": 18924,
      "byteStride": 8,
      "name": "floatBufferViews",
      "target": 34962
    },
    {
      "buffer": 0,
      "byteLength": 29280,
      "byteOffset": 48204,
      "byteStride": 12,
      "name": "floatBufferViews",
      "target": 34962
    },
    {
      "buffer": 0,
      "byteLength": 19520,
      "byteOffset": 77484,
      "byteStride": 16,
      "name": "floatBufferViews",
      "target": 34962
    }
  ],
  "buffers": [
    {
      "byteLength": 97004,
      "uri": "scene.bin"
    }
  ],
  "images": [
    {
      "uri": "textures/Pine_MAT_baseColor.png"
    },
    {
      "uri": "textures/Pine_MAT_metallicRoughness.png"
    },
    {
      "uri": "textures/Pine_MAT_normal.png"
    }
  ],
  "materials": [
    {
      "alphaMode": "BLEND",
      "doubleSided": true,
      "name": "Pine_MAT",
      "normalTexture": {
        "index": 2,
        "scale": 1,
        "texCoord": 0
      },
      "pbrMetallicRoughness": {
        "baseColorFactor": [
          1,
          1,
          1,
          1
        ],
        "baseColorTexture": {
          "index": 0,
          "texCoord": 0
        },
        "metallicFactor": 0,
        "metallicRoughnessTexture": {
          "index": 1,
          "texCoord": 0
        },
        "roughnessFactor": 1
      }
    }
  ],
  "meshes": [
    {
      "name": "polySurface16_Pine_MAT_0",
      "primitives": [
        {
          "attributes": {
            "NORMAL": 1,
            "POSITION": 0,
            "TANGENT": 2,
            "TEXCOORD_0": 3,
            "TEXCOORD_1": 4,
            "TEXCOORD_2": 5
          },
          "indices": 6,
          "material": 0,
          "mode": 4
        }
      ]
    }
  ],
  "nodes": [
    {
      "children": [
        1
      ],
      "name": "RootNode (gltf orientation matrix)",
      "rotation": [
        -0.70710678118654746,
        -0,
        -0,
        0.70710678118654757
      ]
    },
    {
      "children": [
        2
      ],
      "matrix": [
        -1,
        0,
        -2.832769343193999e-16,
        0,
        0,
        1,
        0,
        0,
        2.832769343193999e-16,
        0,
        -1,
        0,
        291.4434814453125,
        0,
        -930.189208984375,
        1
      ],
      "name": "RootNode (model correction matrix)"
    },
    {
      "children": [
        3
      ],
      "matrix": [
        1,
        0,
        0,
        0,
        0,
        -1,
        0,
        0,
        0,
        0,
        -1,
        0,
        0,
        0,
        0,
        1
      ],
      "name": "c2b1e3ac2c774d52a80b214729fb0e09.fbx"
    },
    {
      "children": [
        4
      ],
      "name": "RootNode"
    },
    {
      "children": [
        5
      ],
      "name": "polySurface16"
    },
    {
      "mesh": 0,
      "name": "polySurface16_Pine_MAT_0"
    }
  ],
  "samplers": [
    {
      "magFilter": 9729,
      "minFilter": 9987,
      "wrapS": 10497,
      "wrapT": 10497
    }
  ],
  "scene": 0,
  "scenes": [
    {
      "name": "OSG_Scene",
      "nodes": [
        0
      ]
    }
  ],
  "textures": [
    {
      "sampler": 0,
      "source": 0
    },
    {
      "sampler": 0,
      "source": 1
    },
    {
      "sampler": 0,
      "source": 2
    }
  ]
}

